<?xml version="1.0" encoding="UTF-8" standalone="no"?>
<svg
   xmlns:dc="http://purl.org/dc/elements/1.1/"
   xmlns:cc="http://creativecommons.org/ns#"
   xmlns:rdf="http://www.w3.org/1999/02/22-rdf-syntax-ns#"
   xmlns:svg="http://www.w3.org/2000/svg"
   xmlns="http://www.w3.org/2000/svg"
   xmlns:sodipodi="http://sodipodi.sourceforge.net/DTD/sodipodi-0.dtd"
   xmlns:inkscape="http://www.inkscape.org/namespaces/inkscape"
   version="1.1"
   id="Capa_1"
   x="0px"
   y="0px"
   viewBox="0 0 600 435"
   xml:space="preserve"
   sodipodi:docname="auto-corrected.svg"
   width="600"
   height="435"
   inkscape:version="1.0.1 (3bc2e813f5, 2020-09-07)"><metadata
   id="metadata53"><rdf:RDF><cc:Work
       rdf:about=""><dc:format>image/svg+xml</dc:format><dc:type
         rdf:resource="http://purl.org/dc/dcmitype/StillImage" /><dc:title></dc:title></cc:Work></rdf:RDF></metadata><defs
   id="defs51" /><sodipodi:namedview
   pagecolor="#ffffff"
   bordercolor="#666666"
   borderopacity="1"
   objecttolerance="10"
   gridtolerance="10"
   guidetolerance="10"
   inkscape:pageopacity="0"
   inkscape:pageshadow="2"
   inkscape:window-width="1920"
   inkscape:window-height="1013"
   id="namedview49"
   showgrid="false"
   inkscape:zoom="0.91445402"
   inkscape:cx="189.41613"
   inkscape:cy="231.37451"
   inkscape:window-x="-9"
   inkscape:window-y="-9"
   inkscape:window-maximized="1"
   inkscape:current-layer="Capa_1" />
<g
   id="g16"
   transform="matrix(1.2217589,0,0,1.2217589,20.777425,-57.608311)">
	<path
   d="m 95.252,283.11 c -13.807,0 -25.039,11.232 -25.039,25.039 0,13.807 11.232,25.039 25.039,25.039 13.807,0 25.039,-11.233 25.039,-25.039 0,-13.806 -11.232,-25.039 -25.039,-25.039 z m 0,35.078 c -5.536,0 -10.039,-4.504 -10.039,-10.039 0,-5.535 4.503,-10.039 10.039,-10.039 5.536,0 10.039,4.503 10.039,10.039 0,5.536 -4.503,10.039 -10.039,10.039 z"
   id="path2" />
	<path
   d="m 357.012,283.11 c -13.807,0 -25.04,11.232 -25.04,25.039 0,13.807 11.233,25.039 25.04,25.039 13.806,0 25.038,-11.233 25.038,-25.039 0,-13.806 -11.232,-25.039 -25.038,-25.039 z m 0,35.078 c -5.536,0 -10.04,-4.504 -10.04,-10.039 0,-5.535 4.504,-10.039 10.04,-10.039 5.535,0 10.038,4.503 10.038,10.039 0,5.536 -4.503,10.039 -10.038,10.039 z"
   id="path4" />
	<path
   d="M 409.227,196.421 342.31,188.776 306.596,130.72 c -10.905,-17.728 -30.61,-28.741 -51.424,-28.741 H 133.676 c -34.925,0 -65.792,23.518 -75.063,57.193 l -0.948,3.445 C 53.058,179.35 39.82,192.669 23.116,197.379 9.506,201.217 0,213.773 0,227.914 v 83.012 c 0,4.142 3.358,7.5 7.5,7.5 h 38.557 c 4.757,22.798 25.006,39.978 49.195,39.978 24.189,0 44.438,-17.18 49.195,-39.978 h 163.37 c 4.757,22.798 25.006,39.978 49.195,39.978 24.189,0 44.438,-17.18 49.195,-39.978 h 40.477 c 3.813,0 7.02,-2.861 7.452,-6.65 l 5.874,-51.483 c 3.604,-31.603 -19.176,-60.256 -50.783,-63.872 z M 15,294.313 h 31.949 c -0.843,2.938 -1.43,5.983 -1.724,9.113 H 15 Z m 80.252,49.091 c -19.44,0 -35.255,-15.815 -35.255,-35.255 0,-19.44 15.815,-35.256 35.255,-35.256 19.44,0 35.255,15.816 35.255,35.256 0,19.44 -15.815,35.255 -35.255,35.255 z m 261.76,0 c -19.44,0 -35.255,-15.815 -35.255,-35.255 0,-19.44 15.815,-35.256 35.255,-35.256 19.44,0 35.255,15.816 35.255,35.256 0,19.44 -15.815,35.255 -35.255,35.255 z m 0,-85.511 c -16.987,0 -32.021,8.48 -41.122,21.42 H 182.425 c -4.142,0 -7.5,3.358 -7.5,7.5 0,4.142 3.358,7.5 7.5,7.5 h 126.284 c -0.843,2.938 -1.43,5.983 -1.724,9.113 H 145.279 c -2.389,-25.504 -23.909,-45.533 -50.027,-45.533 -16.987,0 -32.021,8.48 -41.122,21.42 H 15 v -51.399 c 0,-7.455 5.012,-14.075 12.187,-16.098 21.728,-6.126 38.947,-23.452 44.94,-45.218 l 0.948,-3.445 c 7.484,-27.186 32.405,-46.174 60.601,-46.174 h 121.496 c 15.643,0 30.452,8.277 38.647,21.6 l 37.626,61.164 c 1.207,1.962 3.249,3.26 5.537,3.522 l 70.541,8.059 c 16.002,1.831 28.943,12.335 34.67,26.276 H 418.78 c -4.142,0 -7.5,3.358 -7.5,7.5 0,4.142 3.358,7.5 7.5,7.5 h 26.578 c 0.052,1.975 -0.023,3.975 -0.253,5.993 l -2.364,20.72 h -44.608 c -9.1,-12.94 -24.135,-21.42 -41.121,-21.42 z m 50.026,45.533 c -0.293,-3.13 -0.881,-6.175 -1.724,-9.113 h 35.716 l -1.04,9.113 z"
   id="path6" />
	<path
   d="m 255.565,215.222 h -15.76 c -4.142,0 -7.5,3.358 -7.5,7.5 0,4.142 3.358,7.5 7.5,7.5 h 15.76 c 4.142,0 7.5,-3.358 7.5,-7.5 0,-4.142 -3.357,-7.5 -7.5,-7.5 z"
   id="path8" />
	<path
   d="m 154.846,222.722 c 0,-4.142 -3.358,-7.5 -7.5,-7.5 h -15.76 c -4.142,0 -7.5,3.358 -7.5,7.5 0,4.142 3.358,7.5 7.5,7.5 h 15.76 c 4.142,0 7.5,-3.358 7.5,-7.5 z"
   id="path10" />
	<path
   d="m 164.136,283.941 c -1.314,-3.113 -4.658,-5.069 -8.025,-4.546 -3.049,0.474 -5.522,2.768 -6.213,5.776 -1.496,6.51 6.051,11.564 11.54,7.829 2.905,-1.976 4.038,-5.814 2.698,-9.059 -0.19,-0.45 0.19,0.46 0,0 z"
   id="path12" />
	<path
   d="m 286.014,143.391 c -6.531,-10.637 -18.348,-17.245 -30.841,-17.245 h -121.5 c -24.087,0 -45.371,16.217 -51.761,39.443 l -0.943,3.438 c -2.468,8.956 -6.268,24.34 -6.429,24.991 -0.553,2.238 -0.045,4.606 1.376,6.422 1.422,1.815 3.599,2.876 5.905,2.876 h 227.64 c 2.717,0 5.222,-1.469 6.547,-3.841 1.326,-2.372 1.265,-5.275 -0.159,-7.589 z m -86.662,-2.246 v 47.169 h -69.054 v -47.018 c 1.115,-0.098 2.24,-0.151 3.375,-0.151 z m -103.92,31.857 0.944,-3.441 c 2.86,-10.395 9.865,-18.839 18.922,-23.747 v 42.499 H 91.432 c 1.265,-4.992 2.81,-10.99 4,-15.311 z m 118.92,15.312 v -47.169 h 40.821 c 7.316,0 14.235,3.868 18.062,10.1 l 22.807,37.069 z"
   id="path14" />
</g>
<g
   id="g18">
</g>
<g
   id="g20">
</g>
<g
   id="g22">
</g>
<g
   id="g24">
</g>
<g
   id="g26">
</g>
<g
   id="g28">
</g>
<g
   id="g30">
</g>
<g
   id="g32">
</g>
<g
   id="g34">
</g>
<g
   id="g36">
</g>
<g
   id="g38">
</g>
<g
   id="g40">
</g>
<g
   id="g42">
</g>
<g
   id="g44">
</g>
<g
   id="g46">
</g>
</svg>
