<?xml version="1.0" encoding="UTF-8" standalone="no"?>
<svg
   xmlns:dc="http://purl.org/dc/elements/1.1/"
   xmlns:cc="http://creativecommons.org/ns#"
   xmlns:rdf="http://www.w3.org/1999/02/22-rdf-syntax-ns#"
   xmlns:svg="http://www.w3.org/2000/svg"
   xmlns="http://www.w3.org/2000/svg"
   xmlns:sodipodi="http://sodipodi.sourceforge.net/DTD/sodipodi-0.dtd"
   xmlns:inkscape="http://www.inkscape.org/namespaces/inkscape"
   version="1.1"
   id="Capa_1"
   x="0px"
   y="0px"
   viewBox="0 0 600 435"
   xml:space="preserve"
   sodipodi:docname="cards.svg"
   width="600"
   height="435"
   inkscape:version="1.0.1 (3bc2e813f5, 2020-09-07)"><metadata
   id="metadata45"><rdf:RDF><cc:Work
       rdf:about=""><dc:format>image/svg+xml</dc:format><dc:type
         rdf:resource="http://purl.org/dc/dcmitype/StillImage" /><dc:title></dc:title></cc:Work></rdf:RDF></metadata><defs
   id="defs43" /><sodipodi:namedview
   pagecolor="#ffffff"
   bordercolor="#666666"
   borderopacity="1"
   objecttolerance="10"
   gridtolerance="10"
   guidetolerance="10"
   inkscape:pageopacity="0"
   inkscape:pageshadow="2"
   inkscape:window-width="2560"
   inkscape:window-height="1377"
   id="namedview41"
   showgrid="false"
   inkscape:zoom="1.7232497"
   inkscape:cx="177.61981"
   inkscape:cy="169.38809"
   inkscape:window-x="-8"
   inkscape:window-y="-8"
   inkscape:window-maximized="1"
   inkscape:current-layer="Capa_1" />
<g
   id="g8"
   transform="matrix(12.972062,0,0,12.972062,120.5135,48.164813)">
	<path
   style="fill:#030104"
   d="M 23.167,4.481 18.452,3.233 v 2.069 l 4.202,1.112 c 0.534,0.142 0.852,0.691 0.711,1.223 l -4.092,15.469 c -0.142,0.531 -0.691,0.852 -1.225,0.711 L 14.821,22.963 C 14.698,22.975 14.579,23 14.452,23 h -7.09 c 0.162,0.076 0.33,0.144 0.509,0.191 l 9.667,2.559 c 1.602,0.425 3.244,-0.531 3.668,-2.133 L 25.299,8.15 C 25.722,6.549 24.768,4.905 23.167,4.481 Z"
   id="path2" />
	<path
   style="fill:#030104"
   d="m 14.452,0 h -11 c -1.656,0 -3,1.344 -3,3 v 16 c 0,1.656 1.344,3 3,3 h 11 c 1.656,0 3,-1.344 3,-3 V 3 c 0,-1.656 -1.344,-3 -3,-3 z m 1,19 c 0,0.551 -0.449,1 -1,1 h -11 c -0.551,0 -1,-0.449 -1,-1 V 3 c 0,-0.551 0.449,-1 1,-1 h 11 c 0.551,0 1,0.449 1,1 z m -2.111,-7.586 c 0,1.385 -0.927,2.265 -2.251,2.268 -0.685,0 -1.378,-0.463 -1.771,-0.847 0,0 0.368,1.703 1.039,2.991 0.087,0.167 -2.86,0.171 -2.781,0.002 C 8.23,14.432 8.596,12.835 8.596,12.835 8.202,13.201 7.446,13.687 6.813,13.688 5.492,13.689 4.559,12.811 4.557,11.428 4.555,9.11 8.929,6.071 8.929,6.071 h 0.024 c 0,0 4.384,3.027 4.388,5.343 z M 13.396,3.136 C 13.379,3.094 13.364,3.06 13.344,3.036 13.324,3.012 13.283,3 13.221,3 H 12.652 C 12.591,3 12.55,3.012 12.53,3.034 12.509,3.055 12.491,3.088 12.476,3.13 l -0.87,2.753 C 11.589,5.935 11.588,5.966 11.6,5.98 11.612,5.994 11.636,6 11.669,6 h 0.5 C 12.213,6 12.245,5.989 12.27,5.972 12.293,5.954 12.313,5.923 12.328,5.874 L 12.49,5.323 h 0.898 l 0.149,0.537 c 0.015,0.047 0.03,0.084 0.048,0.105 C 13.602,5.988 13.638,6 13.689,6 h 0.56 c 0.033,0 0.053,-0.011 0.059,-0.028 0.006,-0.017 0.006,-0.043 -0.005,-0.08 z m -0.753,1.642 0.135,-0.504 0.149,-0.548 h 0.021 l 0.146,0.552 0.135,0.5 z M 5.689,16 C 5.637,16 5.602,16.012 5.585,16.034 5.567,16.056 5.552,16.093 5.537,16.14 L 5.388,16.677 H 4.489 L 4.327,16.126 C 4.312,16.077 4.293,16.046 4.269,16.028 4.245,16.011 4.213,16 4.169,16 h -0.5 C 3.636,16 3.612,16.007 3.601,16.021 3.59,16.035 3.59,16.066 3.607,16.118 l 0.87,2.753 C 4.492,18.913 4.51,18.945 4.531,18.967 4.551,18.988 4.592,19 4.652,19 H 5.22 c 0.063,0 0.104,-0.012 0.124,-0.036 0.02,-0.023 0.035,-0.058 0.052,-0.1 L 6.302,16.108 C 6.313,16.071 6.313,16.045 6.307,16.028 6.301,16.011 6.282,16 6.249,16 Z M 5.095,17.722 4.949,18.274 H 4.928 L 4.779,17.726 4.644,17.222 H 5.23 Z"
   id="path4" />
	<path
   style="fill:#030104"
   d="M 21.344,7.259 C 21.34,7.214 21.332,7.178 21.321,7.15 21.307,7.121 21.27,7.099 21.21,7.084 L 20.661,6.936 c -0.057,-0.016 -0.1,-0.016 -0.125,0 -0.027,0.017 -0.053,0.043 -0.077,0.079 l -1.558,2.43 C 18.87,9.492 18.862,9.52 18.87,9.538 c 0.007,0.016 0.027,0.028 0.06,0.037 l 0.483,0.131 c 0.042,0.011 0.076,0.01 0.104,-0.002 0.027,-0.01 0.055,-0.035 0.082,-0.078 l 0.3,-0.49 0.867,0.234 0.005,0.558 c 0,0.049 0.007,0.089 0.018,0.114 0.012,0.027 0.042,0.047 0.093,0.061 l 0.54,0.146 c 0.032,0.009 0.054,0.005 0.064,-0.012 0.01,-0.015 0.016,-0.04 0.016,-0.078 z m -1.155,1.39 0.262,-0.453 0.287,-0.489 0.02,0.006 -0.003,0.57 -10e-4,0.519 z"
   id="path6" />
</g>
<g
   id="g10">
</g>
<g
   id="g12">
</g>
<g
   id="g14">
</g>
<g
   id="g16">
</g>
<g
   id="g18">
</g>
<g
   id="g20">
</g>
<g
   id="g22">
</g>
<g
   id="g24">
</g>
<g
   id="g26">
</g>
<g
   id="g28">
</g>
<g
   id="g30">
</g>
<g
   id="g32">
</g>
<g
   id="g34">
</g>
<g
   id="g36">
</g>
<g
   id="g38">
</g>
</svg>
