<?xml version="1.0" encoding="UTF-8" standalone="no"?>
<svg
   xmlns:dc="http://purl.org/dc/elements/1.1/"
   xmlns:cc="http://creativecommons.org/ns#"
   xmlns:rdf="http://www.w3.org/1999/02/22-rdf-syntax-ns#"
   xmlns:svg="http://www.w3.org/2000/svg"
   xmlns="http://www.w3.org/2000/svg"
   xmlns:sodipodi="http://sodipodi.sourceforge.net/DTD/sodipodi-0.dtd"
   xmlns:inkscape="http://www.inkscape.org/namespaces/inkscape"
   version="1.1"
   id="Capa_1"
   x="0px"
   y="0px"
   viewBox="0 0 600 435"
   xml:space="preserve"
   sodipodi:docname="computer-test1.svg"
   width="600"
   height="435"
   inkscape:version="1.0.1 (3bc2e813f5, 2020-09-07)"><metadata
   id="metadata41"><rdf:RDF><cc:Work
       rdf:about=""><dc:format>image/svg+xml</dc:format><dc:type
         rdf:resource="http://purl.org/dc/dcmitype/StillImage" /><dc:title></dc:title></cc:Work></rdf:RDF></metadata><defs
   id="defs39" /><sodipodi:namedview
   pagecolor="#ffffff"
   bordercolor="#666666"
   borderopacity="1"
   objecttolerance="10"
   gridtolerance="10"
   guidetolerance="10"
   inkscape:pageopacity="0"
   inkscape:pageshadow="2"
   inkscape:window-width="1920"
   inkscape:window-height="1013"
   id="namedview37"
   showgrid="false"
   inkscape:zoom="0.76449826"
   inkscape:cx="-166.59268"
   inkscape:cy="130.30672"
   inkscape:window-x="-9"
   inkscape:window-y="-9"
   inkscape:window-maximized="1"
   inkscape:current-layer="Capa_1"
   inkscape:document-rotation="0" />
<g
   id="g4"
   transform="matrix(12.184095,0,0,12.184095,92.950719,11.487059)">
	<path
   style="fill:#010002"
   d="m 32.335,11.606 h -6.533 v -1.009 h 6.533 z m 0,0.658 h -6.533 v 1.011 h 6.533 z M 32.331,7.687 H 25.808 V 9.91 h 6.523 z m 2.087,-2.39 v 23.827 c -10e-4,0.357 -0.292,0.648 -0.65,0.648 h -9.397 c -0.359,0 -0.649,-0.291 -0.649,-0.649 V 5.297 c 0,-0.358 0.29,-0.65 0.649,-0.65 h 9.397 c 0.359,0 0.65,0.292 0.65,0.65 z m -1.299,0.647 h -8.1 v 22.53 h 8.1 z m -0.784,7.988 h -6.533 v 1.008 h 6.533 z m -1.063,7.518 c 0,1.162 -0.939,2.099 -2.097,2.099 -1.16,0 -2.099,-0.938 -2.099,-2.099 0,-1.158 0.94,-2.098 2.099,-2.098 1.158,0 2.097,0.941 2.097,2.098 z m -0.757,0 c 0,-0.739 -0.6,-1.341 -1.341,-1.341 -0.742,0 -1.342,0.601 -1.342,1.341 0,0.74 0.6,1.34 1.342,1.34 0.741,0 1.341,-0.6 1.341,-1.34 z M 21.937,9.218 v 13.505 c 0,0.814 -0.655,1.473 -1.461,1.473 H 13.18 c 0,0 -0.414,2.948 2.212,2.948 v 1.475 H 13.18 8.758 6.546 v -1.473 c 2.529,0 2.212,-2.948 2.212,-2.948 H 1.465 C 0.656,24.198 0,23.539 0,22.725 V 9.218 C 0,8.404 0.656,7.748 1.465,7.748 h 19.01 c 0.807,0 1.462,0.656 1.462,1.47 z m -9.605,13.176 c 0,-0.698 -0.566,-1.263 -1.264,-1.263 -0.699,0 -1.266,0.565 -1.266,1.263 0,0.698 0.566,1.265 1.266,1.265 0.699,0 1.264,-0.567 1.264,-1.265 z M 20.371,9.311 H 1.568 v 11.387 h 18.802 10e-4 c 0,0 0,-11.387 0,-11.387 z m -9.29,12.292 c -0.434,0 -0.785,0.352 -0.785,0.785 0,0.433 0.352,0.785 0.785,0.785 0.433,0 0.785,-0.352 0.785,-0.785 0,-0.433 -0.351,-0.785 -0.785,-0.785 z"
   id="path2" />
</g>
<g
   id="g6">
</g>
<g
   id="g8">
</g>
<g
   id="g10">
</g>
<g
   id="g12">
</g>
<g
   id="g14">
</g>
<g
   id="g16">
</g>
<g
   id="g18">
</g>
<g
   id="g20">
</g>
<g
   id="g22">
</g>
<g
   id="g24">
</g>
<g
   id="g26">
</g>
<g
   id="g28">
</g>
<g
   id="g30">
</g>
<g
   id="g32">
</g>
<g
   id="g34">
</g>
</svg>
