<?xml version="1.0" encoding="UTF-8" standalone="no"?>
<svg
   xmlns:dc="http://purl.org/dc/elements/1.1/"
   xmlns:cc="http://creativecommons.org/ns#"
   xmlns:rdf="http://www.w3.org/1999/02/22-rdf-syntax-ns#"
   xmlns:svg="http://www.w3.org/2000/svg"
   xmlns="http://www.w3.org/2000/svg"
   xmlns:sodipodi="http://sodipodi.sourceforge.net/DTD/sodipodi-0.dtd"
   xmlns:inkscape="http://www.inkscape.org/namespaces/inkscape"
   version="1.1"
   id="Layer_1"
   x="0px"
   y="0px"
   viewBox="0 0 600 435"
   xml:space="preserve"
   sodipodi:docname="dices-test1.svg"
   width="600"
   height="435"
   inkscape:version="1.0.1 (3bc2e813f5, 2020-09-07)"><metadata
   id="metadata85"><rdf:RDF><cc:Work
       rdf:about=""><dc:format>image/svg+xml</dc:format><dc:type
         rdf:resource="http://purl.org/dc/dcmitype/StillImage" /><dc:title></dc:title></cc:Work></rdf:RDF></metadata><defs
   id="defs83" /><sodipodi:namedview
   pagecolor="#ffffff"
   bordercolor="#666666"
   borderopacity="1"
   objecttolerance="10"
   gridtolerance="10"
   guidetolerance="10"
   inkscape:pageopacity="0"
   inkscape:pageshadow="2"
   inkscape:window-width="1920"
   inkscape:window-height="1013"
   id="namedview81"
   showgrid="false"
   inkscape:zoom="1.1628592"
   inkscape:cx="174.12777"
   inkscape:cy="190.55464"
   inkscape:window-x="-9"
   inkscape:window-y="-9"
   inkscape:window-maximized="1"
   inkscape:current-layer="Layer_1"
   inkscape:document-rotation="0" />
<path
   style="fill:#ff6465;stroke-width:0.812214"
   d="M 335.27581,18.038552 207.25196,146.06321 c -7.82814,7.82814 -7.82732,20.5198 0,28.34796 l 128.02385,128.02384 c 7.82812,7.82814 20.5198,7.82814 28.3479,0 L 491.64922,174.41035 c 7.82812,-7.82813 7.82812,-20.519 0,-28.34794 L 363.62371,18.038552 c -7.8273,-7.82732 -20.51978,-7.82732 -28.3479,0 z"
   id="path2" />
<path
   style="opacity:0.1;stroke-width:0.812214;enable-background:new"
   d="M 369.63982,268.07179 241.61516,140.04796 c -7.82812,-7.82814 -7.82812,-20.51983 0,-28.34796 l -34.3632,34.36321 c -7.82814,7.82814 -7.82732,20.5198 0,28.34796 l 128.02385,128.02384 c 7.82812,7.82814 20.5198,7.82814 28.3479,0 l 34.36326,-34.36322 c -7.82735,7.82814 -20.519,7.82896 -28.34715,0 z"
   id="path4" />
<path
   style="fill:#515262;stroke-width:0.812214"
   d="M 295.65026,189.69709 H 114.59604 c -11.07049,0 -20.045466,8.97495 -20.045466,20.04546 v 181.05426 c 0,11.07127 8.974976,20.04543 20.045466,20.04543 h 181.05422 c 11.07044,0 20.04544,-8.97416 20.04544,-20.04543 V 209.74255 c -8e-4,-11.07051 -8.975,-20.04546 -20.04544,-20.04546 z"
   id="path6" />
<path
   style="opacity:0.1;stroke-width:0.812214;enable-background:new"
   d="M 137.5054,390.79593 V 209.74255 c 0,-11.07051 8.97497,-20.04546 20.04547,-20.04546 h -42.95483 c -11.07049,0 -20.045466,8.97495 -20.045466,20.04546 v 181.05426 c 0,11.07127 8.974976,20.04543 20.045466,20.04543 h 42.95483 c -11.07132,-7.9e-4 -20.04547,-8.97579 -20.04547,-20.04631 z"
   id="path8" />
<g
   id="g28"
   transform="matrix(0.81221546,0,0,0.81221546,88.108072,3.5770592)">
	<circle
   style="fill:#b4bbcc"
   cx="211.41499"
   cy="192.884"
   r="21.73"
   id="circle10" />
	<circle
   style="fill:#b4bbcc"
   cx="321.76599"
   cy="82.532997"
   r="21.73"
   id="circle12" />
	<circle
   style="fill:#b4bbcc"
   cx="321.76599"
   cy="303.23499"
   r="21.73"
   id="circle14" />
	<circle
   style="fill:#b4bbcc"
   cx="432.117"
   cy="192.884"
   r="21.73"
   id="circle16" />
	<circle
   style="fill:#b4bbcc"
   cx="144.071"
   cy="365.29099"
   r="21.73"
   id="circle18" />
	<circle
   style="fill:#b4bbcc"
   cx="66.042999"
   cy="287.25299"
   r="21.73"
   id="circle20" />
	<circle
   style="fill:#b4bbcc"
   cx="222.09801"
   cy="287.25299"
   r="21.73"
   id="circle22" />
	<circle
   style="fill:#b4bbcc"
   cx="66.042999"
   cy="443.319"
   r="21.73"
   id="circle24" />
	<circle
   style="fill:#b4bbcc"
   cx="222.09801"
   cy="443.319"
   r="21.73"
   id="circle26" />
</g>
<path
   d="m 259.82176,184.32913 c -6.43517,0 -12.48535,-2.5057 -17.03538,-7.05653 -4.55085,-4.55003 -7.05655,-10.60023 -7.05655,-17.03541 0,-6.43518 2.5057,-12.48618 7.05736,-17.03622 h -8.1e-4 c 8.1e-4,0 8.1e-4,0 8.1e-4,0 4.55002,-4.55084 10.5994,-7.05654 17.03457,-7.05654 6.4352,0 12.48539,2.5057 17.03545,7.05654 9.39408,9.39408 9.39408,24.67835 8.1e-4,34.07244 -4.55087,4.55002 -10.60024,7.05572 -17.03626,7.05572 z m 0,-35.29807 c -2.99298,0 -5.80733,1.16471 -7.92313,3.28134 h -8.4e-4 c -2.11662,2.11663 -3.28133,4.93095 -3.28133,7.92397 0,2.99301 1.16471,5.80735 3.28133,7.92398 2.11664,2.11662 4.93018,3.28135 7.92397,3.28135 2.99386,0 5.80817,-1.16553 7.92481,-3.28135 4.36812,-4.36972 4.36812,-11.47903 -8.2e-4,-15.84876 -2.11582,-2.11419 -4.93095,-3.28053 -7.92399,-3.28053 z"
   id="path30"
   style="stroke-width:0.812214" />
<path
   d="m 349.44979,94.690583 c -6.16958,0 -12.33918,-2.348111 -17.03546,-7.045157 -9.39407,-9.394084 -9.39407,-24.678351 -7.8e-4,-34.072439 h 7.8e-4 c 9.39332,-9.394083 24.67918,-9.394083 34.07164,0 4.55166,4.550024 7.05735,10.600222 7.05735,17.036221 0,6.43518 -2.50569,12.48618 -7.05735,17.035404 -4.69703,4.69786 -10.86582,7.045971 -17.03618,7.045971 z M 341.5258,62.685227 c -4.36974,4.36973 -4.36974,11.47905 0,15.84876 4.3681,4.369729 11.47825,4.368093 15.84876,0 2.1166,-2.116624 3.28135,-4.930965 3.28135,-7.923961 0,-2.993015 -1.16475,-5.807355 -3.28135,-7.923982 -4.37051,-4.369728 -11.47823,-4.369728 -15.84876,-8.17e-4 z"
   id="path32"
   style="stroke-width:0.812214" />
<path
   d="m 349.44979,273.94653 c -6.16958,0 -12.33918,-2.34809 -17.03546,-7.04512 -9.39407,-9.39409 -9.39407,-24.67917 -7.8e-4,-34.07248 h 7.8e-4 c 9.39332,-9.39407 24.67918,-9.39407 34.07164,0 4.55166,4.55007 7.05735,10.60024 7.05735,17.03546 0,6.43517 -2.50569,12.48619 -7.05651,17.03622 -4.69787,4.69783 -10.86666,7.04592 -17.03702,7.04592 z m -7.92399,-32.00534 c -4.36974,4.36974 -4.36974,11.47907 0,15.84877 4.37053,4.36728 11.47825,4.36814 15.84876,0 2.11582,-2.11663 3.28135,-4.93094 3.28135,-7.92398 0,-2.993 -1.16475,-5.8073 -3.28135,-7.92397 -4.37051,-4.36973 -11.47823,-4.36973 -15.84876,-8.2e-4 z"
   id="path34"
   style="stroke-width:0.812214" />
<path
   d="m 439.07774,184.32913 c -6.43518,0 -12.48536,-2.5057 -17.03538,-7.05653 -4.55087,-4.55003 -7.05655,-10.60023 -7.05655,-17.03541 0,-6.43518 2.50568,-12.48618 7.05733,-17.03622 h -7.8e-4 c 7.8e-4,0 7.8e-4,0 7.8e-4,0 4.55007,-4.55084 10.59942,-7.05654 17.0346,-7.05654 6.43517,0 12.4854,2.5057 17.03543,7.05654 9.39409,9.39408 9.39409,24.67835 8.1e-4,34.07244 -4.55084,4.55002 -10.60023,7.05572 -17.03624,7.05572 z m 0,-35.29807 c -2.993,0 -5.80731,1.16471 -7.92313,3.28134 h -8.8e-4 c -2.11658,2.11663 -3.28129,4.93095 -3.28129,7.92397 0,2.99301 1.16471,5.80735 3.28129,7.92398 2.1167,2.11662 4.93018,3.28135 7.92401,3.28135 2.99382,0 5.80817,-1.16553 7.92479,-3.28135 4.3681,-4.36972 4.3681,-11.47903 -8.2e-4,-15.84876 -2.1158,-2.11419 -4.93093,-3.28053 -7.92397,-3.28053 z"
   id="path36"
   style="stroke-width:0.812214" />
<path
   d="m 205.12314,324.36074 c -13.28461,0 -24.09193,-10.80808 -24.09193,-24.09191 0,-13.28377 10.80732,-24.09191 24.09193,-24.09191 13.28458,0 24.09354,10.80814 24.09354,24.09191 -7.9e-4,13.2846 -10.80896,24.09191 -24.09354,24.09191 z m 0,-35.29805 c -6.17852,0 -11.20614,5.02767 -11.20614,11.20614 0,6.17935 5.02762,11.20618 11.20614,11.20618 6.17934,0 11.20693,-5.02767 11.20693,-11.20618 0,-6.17847 -5.02759,-11.20614 -11.20693,-11.20614 z"
   id="path38"
   style="stroke-width:0.812214" />
<path
   d="m 141.74678,260.98439 c -13.28459,0 -24.09355,-10.8081 -24.09355,-24.09193 0,-13.28457 10.80814,-24.09191 24.09355,-24.09191 13.28541,0 24.09193,10.80814 24.09193,24.09191 0,13.28462 -10.80734,24.09193 -24.09193,24.09193 z m 0,-35.29805 c -6.17932,0 -11.20695,5.02762 -11.20695,11.20612 0,6.17852 5.02763,11.20616 11.20695,11.20616 6.17852,0 11.20613,-5.02764 11.20613,-11.20616 -8e-4,-6.17932 -5.02761,-11.20612 -11.20613,-11.20612 z"
   id="path40"
   style="stroke-width:0.812214" />
<path
   d="m 268.4987,260.98439 c -13.28461,0 -24.09194,-10.8081 -24.09194,-24.09193 0,-13.28457 10.80733,-24.09191 24.09194,-24.09191 13.28456,0 24.09354,10.80814 24.09354,24.09191 0,13.28462 -10.80814,24.09193 -24.09354,24.09193 z m 0,-35.29805 c -6.17854,0 -11.20619,5.02762 -11.20619,11.20612 0,6.17852 5.02765,11.20616 11.20619,11.20616 6.17933,0 11.20693,-5.02764 11.20693,-11.20616 0,-6.1785 -5.02681,-11.20612 -11.20693,-11.20612 z"
   id="path42"
   style="stroke-width:0.812214" />
<path
   d="m 141.74678,387.73795 c -13.28459,0 -24.09355,-10.80814 -24.09355,-24.09193 0,-13.28379 10.80814,-24.09196 24.09355,-24.09196 13.28541,0 24.09193,10.80817 24.09193,24.09196 8.2e-4,13.28379 -10.80734,24.09193 -24.09193,24.09193 z m 0,-35.29887 c -6.17932,0 -11.20695,5.0276 -11.20695,11.20616 0,6.1785 5.02763,11.2061 11.20695,11.2061 6.17852,0 11.20613,-5.0276 11.20613,-11.2061 0,-6.17938 -5.02761,-11.20616 -11.20613,-11.20616 z"
   id="path44"
   style="stroke-width:0.812214" />
<path
   d="m 268.4987,387.73795 c -13.28461,0 -24.09194,-10.80814 -24.09194,-24.09193 0,-13.28379 10.80733,-24.09196 24.09194,-24.09196 13.28456,0 24.09354,10.80817 24.09354,24.09196 0,13.28379 -10.80814,24.09193 -24.09354,24.09193 z m 0,-35.29887 c -6.17854,0 -11.20619,5.0276 -11.20619,11.20616 0,6.1785 5.02765,11.2061 11.20619,11.2061 6.17933,0 11.20693,-5.0276 11.20693,-11.2061 0,-6.17938 -5.02681,-11.20616 -11.20693,-11.20616 z"
   id="path46"
   style="stroke-width:0.812214" />
<path
   d="M 496.20492,141.5075 368.17944,13.48284 c -5.00242,-5.0032387 -11.65527,-7.7582801 -18.72965,-7.7582801 -7.07522,0 -13.72726,2.7550414 -18.72973,7.7574631 L 202.69624,141.5075 c -5.00324,5.00244 -7.75828,11.65448 -7.75828,18.72969 8.1e-4,7.07521 2.75585,13.72725 7.75828,18.72969 l 4.28604,4.28607 h -92.38624 c -14.605259,0 -26.487968,11.88273 -26.487968,26.48878 v 181.0542 c 0,14.60527 11.882709,26.48801 26.487968,26.48801 h 181.05422 c 14.60525,0 26.48713,-11.88274 26.48713,-26.48801 v -92.38706 l 8.58267,8.58268 c 5.00165,5.00244 11.65365,7.75746 18.72889,7.75826 8.4e-4,0 0.002,0 0.002,0 7.07358,0 13.72562,-2.75504 18.72886,-7.75826 L 496.20335,178.96688 c 5.00324,-5.00244 7.75828,-11.65448 7.75828,-18.72969 0,-7.07521 -2.75504,-13.72645 -7.75748,-18.72969 z M 309.2516,390.79515 c 0,7.49997 -6.1022,13.60218 -13.60134,13.60218 H 114.59604 c -7.49999,0 -13.60217,-6.10221 -13.60217,-13.60218 V 209.74173 c 0,-7.49998 6.10218,-13.60215 13.60217,-13.60215 h 181.05422 c 7.49914,0 13.60134,6.10217 13.60134,13.60215 z M 487.0927,169.85543 359.06805,297.87933 c -2.56989,2.56984 -5.98445,3.98389 -9.61669,3.98389 h -7.9e-4 c -3.63385,0 -7.05004,-1.41491 -9.61744,-3.98389 L 322.13818,280.1852 v -70.44347 c 0,-13.69313 -10.44427,-24.99269 -23.78407,-26.35152 -0.88939,-0.0901 -1.79095,-0.13629 -2.70471,-0.13629 h -70.44424 l -13.39831,-13.39833 c -2.56905,-2.56982 -3.98471,-5.98521 -3.98471,-9.61824 0,-3.63304 1.41405,-7.04923 3.98471,-9.61745 L 339.83313,22.595079 c 2.5674,-2.569025 5.98359,-3.983917 9.61666,-3.983917 3.63302,0 7.04919,1.414892 9.6174,3.983917 L 487.09106,150.61894 c 2.56983,2.56984 3.98469,5.98522 3.98469,9.61825 0,3.63302 -1.41405,7.04923 -3.98305,9.61824 z"
   id="path48"
   style="stroke-width:0.812214" />
<g
   id="g50"
   transform="translate(-6.8795947,-129.9165)">
</g>
<g
   id="g52"
   transform="translate(-6.8795947,-129.9165)">
</g>
<g
   id="g54"
   transform="translate(-6.8795947,-129.9165)">
</g>
<g
   id="g56"
   transform="translate(-6.8795947,-129.9165)">
</g>
<g
   id="g58"
   transform="translate(-6.8795947,-129.9165)">
</g>
<g
   id="g60"
   transform="translate(-6.8795947,-129.9165)">
</g>
<g
   id="g62"
   transform="translate(-6.8795947,-129.9165)">
</g>
<g
   id="g64"
   transform="translate(-6.8795947,-129.9165)">
</g>
<g
   id="g66"
   transform="translate(-6.8795947,-129.9165)">
</g>
<g
   id="g68"
   transform="translate(-6.8795947,-129.9165)">
</g>
<g
   id="g70"
   transform="translate(-6.8795947,-129.9165)">
</g>
<g
   id="g72"
   transform="translate(-6.8795947,-129.9165)">
</g>
<g
   id="g74"
   transform="translate(-6.8795947,-129.9165)">
</g>
<g
   id="g76"
   transform="translate(-6.8795947,-129.9165)">
</g>
<g
   id="g78"
   transform="translate(-6.8795947,-129.9165)">
</g>
</svg>
