<?xml version="1.0" encoding="UTF-8" standalone="no"?>
<svg
   xmlns:dc="http://purl.org/dc/elements/1.1/"
   xmlns:cc="http://creativecommons.org/ns#"
   xmlns:rdf="http://www.w3.org/1999/02/22-rdf-syntax-ns#"
   xmlns:svg="http://www.w3.org/2000/svg"
   xmlns="http://www.w3.org/2000/svg"
   xmlns:sodipodi="http://sodipodi.sourceforge.net/DTD/sodipodi-0.dtd"
   xmlns:inkscape="http://www.inkscape.org/namespaces/inkscape"
   version="1.1"
   id="Layer_1"
   x="0px"
   y="0px"
   viewBox="0 0 600.00003 435.00002"
   xml:space="preserve"
   sodipodi:docname="katana.svg"
   width="600"
   height="435"
   inkscape:version="1.0.1 (3bc2e813f5, 2020-09-07)"><metadata
   id="metadata49"><rdf:RDF><cc:Work
       rdf:about=""><dc:format>image/svg+xml</dc:format><dc:type
         rdf:resource="http://purl.org/dc/dcmitype/StillImage" /><dc:title></dc:title></cc:Work></rdf:RDF></metadata><defs
   id="defs47" /><sodipodi:namedview
   pagecolor="#ffffff"
   bordercolor="#666666"
   borderopacity="1"
   objecttolerance="10"
   gridtolerance="10"
   guidetolerance="10"
   inkscape:pageopacity="0"
   inkscape:pageshadow="2"
   inkscape:window-width="1920"
   inkscape:window-height="1013"
   id="namedview45"
   showgrid="false"
   inkscape:zoom="1.162857"
   inkscape:cx="173.88963"
   inkscape:cy="302.34527"
   inkscape:window-x="-9"
   inkscape:window-y="-9"
   inkscape:window-maximized="1"
   inkscape:current-layer="Layer_1" />
<g
   id="g6"
   transform="matrix(0.68815456,0,0,0.68815456,125.65062,41.277768)">
	<g
   id="g4">
		<path
   d="m 493.376,0.736 c -2.986,-1.394 -6.524,-0.77 -8.854,1.56 L 456.918,29.9 c -3.06,3.062 -3.06,8.023 0,11.084 3.06,3.059 8.023,3.059 11.083,0 l 12.372,-12.372 -1.006,11.464 c -1.477,16.825 -8.869,32.67 -20.813,44.614 L 339.539,203.705 c -3.06,3.062 -3.06,8.023 0,11.084 1.53,1.53 3.536,2.295 5.541,2.295 2.005,0 4.011,-0.765 5.541,-2.295 L 469.637,95.773 C 484.181,81.228 493.182,61.934 494.98,41.446 l 2.89,-32.923 c 0.288,-3.283 -1.508,-6.395 -4.494,-7.787 z"
   id="path2" />
	</g>
</g>
<g
   id="g12"
   transform="matrix(0.68815456,0,0,0.68815456,125.65062,41.277768)">
	<g
   id="g10">
		<path
   d="m 489.763,464.579 -98.158,-98.158 18.963,-18.963 c 2.431,-2.43 3.77,-5.663 3.77,-9.101 0,-3.439 -1.34,-6.671 -3.77,-9.1 l -12.047,-12.049 c -5.018,-5.016 -13.182,-5.017 -18.201,0 l -18.963,18.964 -66.058,-66.058 23.977,-23.977 c 3.06,-3.062 3.06,-8.023 0,-11.084 -3.06,-3.06 -8.023,-3.06 -11.083,0 l -29.518,29.516 c -0.001,0 -0.002,10e-4 -0.002,0.002 0,10e-4 -10e-4,10e-4 -0.002,0.002 l -28.207,28.207 c -0.001,0.001 -0.003,0.003 -0.005,0.004 -0.002,0.001 -0.003,0.003 -0.004,0.004 l -71.596,71.596 -13.382,-13.382 -3.748,-3.748 71.593,-71.592 c 0.002,-0.002 0.005,-0.004 0.008,-0.007 0.003,-0.003 0.004,-0.005 0.007,-0.008 l 28.199,-28.199 c 0.002,-0.002 0.004,-0.004 0.007,-0.006 0.002,-0.002 0.004,-0.004 0.006,-0.007 L 443.917,65.068 c 3.06,-3.062 3.06,-8.023 0,-11.084 -3.06,-3.06 -8.023,-3.06 -11.083,0 L 256,230.817 200.414,175.231 c -3.06,-3.06 -8.023,-3.06 -11.083,0 -3.061,3.062 -3.061,8.023 0,11.084 L 244.916,241.9 227.787,259.03 53.444,84.686 C 41.506,72.759 34.118,56.917 32.639,40.076 L 31.632,28.615 162.216,159.199 c 3.06,3.06 8.023,3.06 11.083,0 3.061,-3.062 3.061,-8.023 0,-11.084 L 27.479,2.296 c -2.33,-2.329 -5.868,-2.953 -8.854,-1.56 -2.986,1.394 -4.782,4.507 -4.493,7.789 l 2.894,32.925 c 1.8,20.504 10.799,39.797 25.338,54.323 l 174.341,174.341 -66.058,66.058 -18.964,-18.964 c -5.019,-5.019 -13.183,-5.017 -18.201,10e-4 l -12.047,12.047 c -2.431,2.43 -3.77,5.662 -3.77,9.101 0,3.438 1.339,6.671 3.77,9.101 l 18.963,18.963 -98.158,98.158 c -10.835,10.833 -10.835,28.462 -10e-4,39.295 5.416,5.418 12.532,8.126 19.648,8.126 7.116,0 14.232,-2.708 19.648,-8.125 l 22.241,-22.241 c 0.014,-0.014 0.027,-0.027 0.041,-0.041 l 29.088,-29.088 c 0.013,-0.013 0.025,-0.025 0.038,-0.038 l 29.092,-29.092 c 0.01,-0.01 0.021,-0.021 0.032,-0.032 l 17.627,-17.627 18.962,18.962 c 2.431,2.431 5.664,3.77 9.102,3.77 3.439,0 6.672,-1.339 9.101,-3.77 l 12.048,-12.048 c 2.43,-2.432 3.769,-5.663 3.769,-9.1 0,-3.439 -1.34,-6.671 -3.77,-9.101 L 189.943,375.466 256,309.41 l 66.058,66.059 -18.963,18.963 c -2.431,2.43 -3.77,5.662 -3.77,9.101 0,3.437 1.339,6.669 3.77,9.101 l 12.046,12.044 c 2.43,2.433 5.663,3.771 9.102,3.771 3.438,0 6.671,-1.339 9.101,-3.77 l 18.963,-18.963 17.628,17.628 c 0.01,0.01 0.02,0.02 0.03,0.03 l 29.094,29.094 c 0.011,0.011 0.024,0.024 0.036,0.036 l 29.089,29.089 c 0.014,0.014 0.027,0.027 0.041,0.041 l 22.241,22.241 c 5.417,5.417 12.533,8.125 19.648,8.125 7.116,0 14.232,-2.708 19.648,-8.126 10.834,-10.832 10.834,-28.46 10e-4,-39.295 z m -439.31,28.213 c -2.288,2.287 -5.33,3.548 -8.565,3.548 -3.236,0 -6.278,-1.26 -8.565,-3.547 -4.723,-4.724 -4.723,-12.408 -10e-4,-17.13 l 10.474,-10.474 21.733,12.527 z m 26.553,-26.553 -21.733,-12.526 17.649,-17.65 21.734,12.526 z m 29.126,-29.128 -21.734,-12.526 17.65,-17.65 21.734,12.526 z m 29.127,-29.126 -21.734,-12.526 17.954,-17.955 17.13,17.13 z m 60.58,-4.452 -8.082,8.082 -22.518,-22.518 c -0.002,-0.002 -0.003,-0.003 -0.005,-0.005 l -28.213,-28.213 c -0.002,-0.002 -0.003,-0.003 -0.005,-0.005 l -22.518,-22.518 8.083,-8.082 z m 71.244,-105.207 17.129,-17.129 66.06,66.058 -17.13,17.13 z m 79.682,90.768 c -0.002,0.002 -0.003,0.003 -0.005,0.005 l -22.518,22.518 -8.082,-8.082 22.429,-22.429 c 0.032,-0.031 0.067,-0.057 0.098,-0.089 L 366.9,352.804 c 0.033,-0.033 0.061,-0.069 0.093,-0.102 l 22.426,-22.427 8.082,8.083 -22.518,22.518 c -0.002,0.002 -0.003,0.003 -0.005,0.005 z m 16.626,5.54 17.13,-17.13 17.954,17.955 -21.734,12.526 z m 24.826,24.827 21.734,-12.526 17.65,17.65 -21.734,12.526 z m 29.128,29.127 21.734,-12.526 17.649,17.649 -21.733,12.527 z m 61.333,44.204 c -4.723,4.725 -12.408,4.725 -17.13,0 l -15.076,-15.076 21.733,-12.527 10.473,10.473 c 4.722,4.722 4.722,12.407 0,17.13 z"
   id="path8" />
	</g>
</g>
<g
   id="g14">
</g>
<g
   id="g16">
</g>
<g
   id="g18">
</g>
<g
   id="g20">
</g>
<g
   id="g22">
</g>
<g
   id="g24">
</g>
<g
   id="g26">
</g>
<g
   id="g28">
</g>
<g
   id="g30">
</g>
<g
   id="g32">
</g>
<g
   id="g34">
</g>
<g
   id="g36">
</g>
<g
   id="g38">
</g>
<g
   id="g40">
</g>
<g
   id="g42">
</g>
</svg>
