<?xml version="1.0" encoding="UTF-8" standalone="no"?>
<svg
   xmlns:dc="http://purl.org/dc/elements/1.1/"
   xmlns:cc="http://creativecommons.org/ns#"
   xmlns:rdf="http://www.w3.org/1999/02/22-rdf-syntax-ns#"
   xmlns:svg="http://www.w3.org/2000/svg"
   xmlns="http://www.w3.org/2000/svg"
   xmlns:sodipodi="http://sodipodi.sourceforge.net/DTD/sodipodi-0.dtd"
   xmlns:inkscape="http://www.inkscape.org/namespaces/inkscape"
   fill="#000000"
   version="1.1"
   id="Capa_1"
   width="600"
   height="435"
   viewBox="0 0 243.0135 176.18424"
   xml:space="preserve"
   sodipodi:docname="racing-car.svg"
   inkscape:version="1.0.1 (3bc2e813f5, 2020-09-07)"><metadata
   id="metadata17"><rdf:RDF><cc:Work
       rdf:about=""><dc:format>image/svg+xml</dc:format><dc:type
         rdf:resource="http://purl.org/dc/dcmitype/StillImage" /><dc:title></dc:title></cc:Work></rdf:RDF></metadata><defs
   id="defs15" /><sodipodi:namedview
   pagecolor="#ffffff"
   bordercolor="#666666"
   borderopacity="1"
   objecttolerance="10"
   gridtolerance="10"
   guidetolerance="10"
   inkscape:pageopacity="0"
   inkscape:pageshadow="2"
   inkscape:window-width="2560"
   inkscape:window-height="1377"
   id="namedview13"
   showgrid="false"
   inkscape:zoom="1.26"
   inkscape:cx="400"
   inkscape:cy="304.7619"
   inkscape:window-x="-8"
   inkscape:window-y="-8"
   inkscape:window-maximized="1"
   inkscape:current-layer="Capa_1" />
<g
   id="g10"
   transform="matrix(0.65209068,0,0,0.65209068,16.2009,-20.280712)">
	<g
   id="g8">
		<path
   d="m 317.833,197.111 c 3.346,-11.148 2.455,-20.541 -2.65,-27.945 -9.715,-14.064 -31.308,-15.864 -35.43,-16.076 l -8.077,-4.352 -0.528,-0.217 c -8.969,-2.561 -42.745,-3.591 -47.805,-3.733 -7.979,-3.936 -14.607,-7.62 -20.475,-10.879 -20.536,-11.413 -34.107,-18.958 -72.959,-18.958 -47.049,0 -85.447,20.395 -90.597,23.25 -2.812,0.212 -5.297,0.404 -7.646,0.59 l -6.455,-8.733 7.34,0.774 c 2.91,0.306 4.267,-1.243 3.031,-3.459 -1.24,-2.216 -4.603,-4.262 -7.519,-4.57 L 4.112,120.279 c -2.91,-0.305 -4.267,1.243 -3.026,3.459 1.24,2.216 4.603,4.262 7.519,4.57 l 3.679,0.386 8.166,11.05 c -13.823,1.315 -13.823,2.139 -13.823,4.371 0,18.331 -2.343,22.556 -2.832,23.369 L 0,164.443 v 19.019 l 2.248,2.89 c -0.088,2.775 0.823,5.323 2.674,7.431 5.981,6.804 19.713,7.001 21.256,7.001 4.634,0 14.211,-2.366 20.78,-4.153 -0.456,-0.781 -0.927,-1.553 -1.3,-2.392 -0.36,-0.809 -0.603,-1.668 -0.885,-2.517 -0.811,-2.485 -1.362,-5.096 -1.362,-7.845 0,-14.074 11.449,-25.516 25.515,-25.516 14.066,0 25.52,11.446 25.52,25.521 0,6.068 -2.221,11.578 -5.773,15.964 -0.753,0.927 -1.527,1.828 -2.397,2.641 -1.022,0.958 -2.089,1.859 -3.254,2.641 29.332,0.109 112.164,0.514 168.708,1.771 -0.828,-0.823 -1.533,-1.771 -2.237,-2.703 -0.652,-0.854 -1.222,-1.75 -1.761,-2.688 -2.164,-3.744 -3.5,-8.025 -3.5,-12.655 0,-14.069 11.454,-25.513 25.518,-25.513 14.064,0 25.518,11.449 25.518,25.513 0,5.126 -1.553,9.875 -4.152,13.878 -0.605,0.922 -1.326,1.755 -2.04,2.594 -0.782,0.922 -1.616,1.781 -2.527,2.584 5.209,0.155 9.699,0.232 13.546,0.232 19.563,0 23.385,-1.688 23.861,-5.018 0.158,-1.015 0.516,-3.521 -6.123,-6.012 z"
   id="path2" />
		<path
   d="m 52.17,195.175 c 3.638,5.379 9.794,8.922 16.756,8.922 0.228,0 0.44,-0.062 0.663,-0.073 2.576,-0.083 5.043,-0.61 7.291,-1.574 1.574,-0.678 2.996,-1.6 4.332,-2.636 4.782,-3.702 7.927,-9.429 7.927,-15.933 0,-11.144 -9.066,-20.216 -20.212,-20.216 -11.146,0 -20.213,9.072 -20.213,20.216 0,2.263 0.461,4.411 1.149,6.446 0.288,0.85 0.616,1.673 1.015,2.471 0.401,0.808 0.789,1.636 1.292,2.377 z"
   id="path4" />
		<path
   d="m 269.755,209.068 c 2.656,0 5.173,-0.549 7.503,-1.481 1.589,-0.642 3.06,-1.491 4.422,-2.495 1.035,-0.767 1.988,-1.616 2.863,-2.559 3.34,-3.604 5.432,-8.389 5.432,-13.681 0,-11.144 -9.071,-20.21 -20.215,-20.21 -11.144,0 -20.216,9.066 -20.216,20.21 0,4.878 1.812,9.3 4.702,12.801 0.818,0.989 1.719,1.89 2.708,2.713 1.311,1.088 2.729,2.024 4.293,2.755 2.589,1.212 5.457,1.947 8.508,1.947 z"
   id="path6" />
	</g>
</g>
</svg>
