<?xml version="1.0" encoding="UTF-8" standalone="no"?>
<!-- Created with Inkscape (http://www.inkscape.org/) -->

<svg
   width="600"
   height="435"
   viewBox="0 0 158.75 115.09375"
   version="1.1"
   id="svg5"
   xml:space="preserve"
   inkscape:export-filename="table-soccer2.svg"
   inkscape:export-xdpi="96"
   inkscape:export-ydpi="96"
   xmlns:inkscape="http://www.inkscape.org/namespaces/inkscape"
   xmlns:sodipodi="http://sodipodi.sourceforge.net/DTD/sodipodi-0.dtd"
   xmlns="http://www.w3.org/2000/svg"
   xmlns:svg="http://www.w3.org/2000/svg"><sodipodi:namedview
     id="namedview7"
     pagecolor="#ffffff"
     bordercolor="#000000"
     borderopacity="0.25"
     inkscape:showpageshadow="2"
     inkscape:pageopacity="0.0"
     inkscape:pagecheckerboard="0"
     inkscape:deskcolor="#d1d1d1"
     inkscape:document-units="mm"
     showgrid="false" /><defs
     id="defs2" /><g
     inkscape:label="Calque 1"
     inkscape:groupmode="layer"
     id="layer1"><g
       id="g29"
       transform="matrix(0.19432365,0,0,0.18388005,28.27894,8.1527795)"><path
         d="M 488.468,88.177 H 375.726 V 69.88 c 9.308,-3.139 16.033,-11.946 16.033,-22.3 V 31.548 c 0,-12.976 -10.557,-23.532 -23.533,-23.532 -12.976,0 -23.532,10.557 -23.532,23.532 V 47.58 c 0,10.353 6.724,19.16 16.032,22.3 V 88.177 H 311.597 V 69.88 c 9.308,-3.139 16.032,-11.946 16.032,-22.3 V 31.548 c 0,-12.976 -10.557,-23.532 -23.532,-23.532 -12.975,0 -23.532,10.557 -23.532,23.532 V 47.58 c 0,10.353 6.724,19.16 16.032,22.3 V 88.177 H 215.404 V 69.88 c 9.308,-3.139 16.032,-11.946 16.032,-22.3 V 31.548 c 0,-12.976 -10.557,-23.532 -23.532,-23.532 -12.975,0 -23.532,10.557 -23.532,23.532 V 47.58 c 0,10.353 6.724,19.16 16.032,22.3 V 88.177 H 151.275 V 69.88 c 9.308,-3.139 16.032,-11.946 16.032,-22.3 V 31.548 c 0,-12.976 -10.557,-23.532 -23.532,-23.532 -12.976,0 -23.533,10.557 -23.533,23.532 V 47.58 c 0,10.354 6.724,19.16 16.033,22.3 V 88.177 H 23.532 C 10.557,88.177 0,98.734 0,111.709 V 400.29 c 0,12.976 10.557,23.532 23.532,23.532 h 112.742 v 18.297 c -9.309,3.139 -16.033,11.946 -16.033,22.3 v 16.032 c 0,12.976 10.557,23.532 23.533,23.532 12.976,0 23.532,-10.557 23.532,-23.532 v -16.032 c 0,-10.353 -6.724,-19.16 -16.032,-22.3 v -18.297 h 49.129 v 18.297 c -9.308,3.139 -16.032,11.946 -16.032,22.3 v 16.032 c 0,12.976 10.557,23.532 23.532,23.532 12.975,0 23.532,-10.557 23.532,-23.532 v -16.032 c 0,-10.353 -6.724,-19.16 -16.032,-22.3 v -18.297 h 81.193 v 18.297 c -9.308,3.139 -16.032,11.946 -16.032,22.3 v 16.032 c 0,12.976 10.557,23.532 23.532,23.532 12.975,0 23.532,-10.557 23.532,-23.532 v -16.032 c 0,-10.353 -6.724,-19.16 -16.032,-22.3 v -18.297 h 49.129 v 18.297 c -9.308,3.139 -16.032,11.946 -16.032,22.3 v 16.032 c 0,12.976 10.557,23.532 23.532,23.532 12.976,0 23.533,-10.557 23.533,-23.532 v -16.032 c 0,-10.354 -6.724,-19.16 -16.033,-22.3 v -18.297 h 112.742 c 12.976,0 23.532,-10.557 23.532,-23.532 V 111.709 C 512,98.734 501.443,88.177 488.468,88.177 Z M 359.693,31.548 c 0,-4.705 3.828,-8.532 8.532,-8.532 4.705,0 8.533,3.828 8.533,8.532 V 47.58 c 0,4.705 -3.828,8.532 -8.533,8.532 -4.705,0 -8.532,-3.828 -8.532,-8.532 z m -64.129,0 c 0,-4.705 3.828,-8.532 8.532,-8.532 4.704,0 8.532,3.828 8.532,8.532 V 47.58 c 0,4.705 -3.828,8.532 -8.532,8.532 -4.704,0 -8.532,-3.828 -8.532,-8.532 z m -96.193,0 c 0,-4.705 3.828,-8.532 8.532,-8.532 4.704,0 8.532,3.828 8.532,8.532 V 47.58 c 0,4.705 -3.828,8.532 -8.532,8.532 -4.704,0 -8.532,-3.828 -8.532,-8.532 z m -64.129,0 c 0,-4.705 3.828,-8.532 8.533,-8.532 4.705,0 8.532,3.828 8.532,8.532 V 47.58 c 0,4.705 -3.828,8.532 -8.532,8.532 -4.705,0 -8.533,-3.828 -8.533,-8.532 z m 17.065,448.904 c 0,4.705 -3.828,8.532 -8.532,8.532 -4.705,0 -8.533,-3.828 -8.533,-8.532 V 464.42 c 0,-4.705 3.828,-8.532 8.533,-8.532 4.705,0 8.532,3.828 8.532,8.532 z m 64.129,0 c 0,4.705 -3.828,8.532 -8.532,8.532 -4.704,0 -8.532,-3.828 -8.532,-8.532 V 464.42 c 0,-4.705 3.828,-8.532 8.532,-8.532 4.704,0 8.532,3.828 8.532,8.532 z m 96.193,0 c 0,4.705 -3.828,8.532 -8.532,8.532 -4.704,0 -8.532,-3.828 -8.532,-8.532 V 464.42 c 0,-4.705 3.828,-8.532 8.532,-8.532 4.704,0 8.532,3.828 8.532,8.532 z m 64.129,0 c 0,4.705 -3.828,8.532 -8.533,8.532 -4.705,0 -8.532,-3.828 -8.532,-8.532 V 464.42 c 0,-4.705 3.828,-8.532 8.532,-8.532 4.705,0 8.533,3.828 8.533,8.532 z M 497,400.291 c 0,4.705 -3.828,8.532 -8.532,8.532 H 23.532 C 18.827,408.823 15,404.995 15,400.291 V 111.709 c 0,-4.705 3.828,-8.532 8.532,-8.532 h 464.936 c 4.705,0 8.532,3.828 8.532,8.532 z"
         id="path18" /><path
         d="m 472.436,120.242 h -16.033 c -4.142,0 -7.5,3.358 -7.5,7.5 0,4.142 3.358,7.5 7.5,7.5 h 8.533 v 65.162 h -48.613 c -4.142,0 -7.5,3.358 -7.5,7.5 v 96.193 c 0,4.142 3.358,7.5 7.5,7.5 h 48.613 v 65.162 h -89.21 v -26.314 c 9.308,-3.139 16.033,-11.946 16.033,-22.3 0,-10.354 -6.724,-19.16 -16.033,-22.3 V 278.3 c 9.308,-3.139 16.033,-11.946 16.033,-22.3 0,-10.354 -6.724,-19.16 -16.033,-22.3 v -27.546 c 9.308,-3.139 16.033,-11.946 16.033,-22.3 0,-10.354 -6.724,-19.16 -16.033,-22.3 V 135.24 h 48.612 c 4.142,0 7.5,-3.358 7.5,-7.5 0,-4.142 -3.358,-7.5 -7.5,-7.5 H 39.564 c -4.142,0 -7.5,3.358 -7.5,7.5 v 256.517 c 0,4.142 3.358,7.5 7.5,7.5 h 16.033 c 4.142,0 7.5,-3.358 7.5,-7.5 0,-4.142 -3.358,-7.5 -7.5,-7.5 h -8.533 v -65.162 h 48.613 c 4.142,0 7.5,-3.358 7.5,-7.5 v -96.193 c 0,-4.142 -3.358,-7.5 -7.5,-7.5 H 47.064 V 135.24 h 89.21 v 26.314 c -9.309,3.139 -16.033,11.946 -16.033,22.3 0,10.354 6.724,19.16 16.033,22.3 V 233.7 c -9.309,3.139 -16.033,11.946 -16.033,22.3 0,10.354 6.724,19.16 16.033,22.3 v 27.546 c -9.309,3.139 -16.033,11.946 -16.033,22.3 0,10.354 6.724,19.16 16.033,22.3 V 376.76 H 87.662 c -4.142,0 -7.5,3.358 -7.5,7.5 0,4.142 3.358,7.5 7.5,7.5 h 384.773 c 4.142,0 7.5,-3.358 7.5,-7.5 V 127.742 c 10e-4,-4.142 -3.357,-7.5 -7.499,-7.5 z M 88.177,215.403 v 81.193 H 47.064 v -81.193 z m 280.049,121.274 c -4.705,0 -8.532,-3.828 -8.532,-8.532 0,-4.704 3.828,-8.532 8.532,-8.532 4.705,0 8.533,3.828 8.533,8.532 0,4.704 -3.828,8.532 -8.533,8.532 z m 0,-72.145 c -4.705,0 -8.532,-3.828 -8.532,-8.532 0,-4.704 3.828,-8.532 8.532,-8.532 4.705,0 8.533,3.828 8.533,8.532 0,4.704 -3.828,8.532 -8.533,8.532 z m 0,-72.145 c -4.705,0 -8.532,-3.828 -8.532,-8.532 0,-4.704 3.828,-8.532 8.532,-8.532 4.705,0 8.533,3.828 8.533,8.532 0,4.704 -3.828,8.532 -8.533,8.532 z m -7.5,-30.832 c -9.308,3.139 -16.032,11.946 -16.032,22.3 0,10.354 6.724,19.16 16.032,22.3 V 233.7 c -9.308,3.139 -16.032,11.946 -16.032,22.3 0,10.354 6.724,19.16 16.032,22.3 v 27.546 c -9.308,3.139 -16.032,11.946 -16.032,22.3 0,10.354 6.724,19.16 16.032,22.3 v 26.314 h -49.129 v -26.314 c 9.308,-3.139 16.032,-11.946 16.032,-22.3 0,-10.354 -6.724,-19.16 -16.032,-22.3 V 278.3 c 9.308,-3.139 16.032,-11.946 16.032,-22.3 0,-10.354 -6.724,-19.16 -16.032,-22.3 v -27.546 c 9.308,-3.139 16.032,-11.946 16.032,-22.3 0,-10.354 -6.724,-19.16 -16.032,-22.3 V 135.24 h 49.129 z m -152.823,13.768 c 4.705,0 8.532,3.828 8.532,8.532 0,4.704 -3.828,8.532 -8.532,8.532 -4.704,0 -8.532,-3.828 -8.532,-8.532 0,-4.704 3.828,-8.532 8.532,-8.532 z m 7.5,30.832 c 9.308,-3.139 16.032,-11.946 16.032,-22.3 0,-10.354 -6.724,-19.16 -16.032,-22.3 V 135.241 H 248.5 v 65.681 c -12.794,1.745 -24.452,7.891 -33.097,17.111 z m 88.694,130.522 c -4.705,0 -8.532,-3.828 -8.532,-8.532 0,-4.704 3.828,-8.532 8.532,-8.532 4.704,0 8.532,3.828 8.532,8.532 0,4.704 -3.828,8.532 -8.532,8.532 z M 220.565,236.18 c 5.871,-10.48 16.143,-17.85 27.935,-20.072 v 79.783 c -11.793,-2.222 -22.064,-9.591 -27.935,-20.072 6.53,-4.187 10.871,-11.504 10.871,-19.82 0,-8.315 -4.341,-15.632 -10.871,-19.819 z M 263.5,216.109 c 11.791,2.222 22.063,9.592 27.935,20.072 -6.53,4.187 -10.87,11.504 -10.87,19.82 0,8.316 4.34,15.633 10.87,19.82 -5.871,10.48 -16.143,17.85 -27.935,20.072 z m 40.597,48.423 c -4.705,0 -8.532,-3.828 -8.532,-8.532 0,-4.704 3.828,-8.532 8.532,-8.532 4.704,0 8.532,3.828 8.532,8.532 0,4.704 -3.828,8.532 -8.532,8.532 z m 0,-72.145 c -4.705,0 -8.532,-3.828 -8.532,-8.532 0,-4.704 3.828,-8.532 8.532,-8.532 4.704,0 8.532,3.828 8.532,8.532 0,4.704 -3.828,8.532 -8.532,8.532 z m -7.5,-30.832 c -9.308,3.139 -16.032,11.946 -16.032,22.3 0,10.354 6.724,19.16 16.032,22.3 v 11.88 c -8.645,-9.22 -20.304,-15.366 -33.097,-17.112 v -65.681 h 33.097 z m -88.694,85.913 c 4.705,0 8.532,3.828 8.532,8.532 0,4.704 -3.828,8.532 -8.532,8.532 -4.704,0 -8.532,-3.828 -8.532,-8.532 0,-4.704 3.828,-8.532 8.532,-8.532 z m 0,72.145 c 4.705,0 8.532,3.828 8.532,8.532 0,4.704 -3.828,8.532 -8.532,8.532 -4.704,0 -8.532,-3.828 -8.532,-8.532 0,-4.704 3.828,-8.532 8.532,-8.532 z m 7.5,30.832 c 9.308,-3.139 16.032,-11.946 16.032,-22.3 0,-10.354 -6.724,-19.16 -16.032,-22.3 v -11.878 c 8.644,9.219 20.302,15.365 33.097,17.11 v 65.681 H 215.403 Z M 263.5,311.078 c 12.794,-1.745 24.452,-7.891 33.097,-17.111 v 11.879 c -9.308,3.139 -16.032,11.946 -16.032,22.3 0,10.354 6.724,19.16 16.032,22.3 V 376.76 H 263.5 Z M 143.774,175.323 c 4.705,0 8.532,3.828 8.532,8.532 0,4.704 -3.828,8.532 -8.532,8.532 -4.705,0 -8.533,-3.828 -8.533,-8.532 0,-4.704 3.828,-8.532 8.533,-8.532 z m 0,72.145 c 4.705,0 8.532,3.828 8.532,8.532 0,4.704 -3.828,8.532 -8.532,8.532 -4.705,0 -8.533,-3.828 -8.533,-8.532 0,-4.704 3.828,-8.532 8.533,-8.532 z m 0,72.145 c 4.705,0 8.532,3.828 8.532,8.532 0,4.704 -3.828,8.532 -8.532,8.532 -4.705,0 -8.533,-3.828 -8.533,-8.532 0,-4.704 3.828,-8.532 8.533,-8.532 z m 7.5,30.832 c 9.308,-3.139 16.032,-11.946 16.032,-22.3 0,-10.354 -6.724,-19.16 -16.032,-22.3 V 278.3 c 9.308,-3.139 16.032,-11.946 16.032,-22.3 0,-10.354 -6.724,-19.16 -16.032,-22.3 v -27.546 c 9.308,-3.139 16.032,-11.946 16.032,-22.3 0,-10.354 -6.724,-19.16 -16.032,-22.3 V 135.24 h 49.129 v 26.314 c -9.308,3.139 -16.032,11.946 -16.032,22.3 0,10.354 6.724,19.16 16.032,22.3 V 233.7 c -9.308,3.139 -16.032,11.946 -16.032,22.3 0,10.354 6.724,19.16 16.032,22.3 v 27.546 c -9.308,3.139 -16.032,11.946 -16.032,22.3 0,10.354 6.724,19.16 16.032,22.3 v 26.314 h -49.129 z m 272.549,-53.848 v -81.193 h 41.113 v 81.193 z"
         id="path20" /></g></g></svg>
