<?xml version="1.0" encoding="UTF-8" standalone="no"?>
<svg
   xmlns:dc="http://purl.org/dc/elements/1.1/"
   xmlns:cc="http://creativecommons.org/ns#"
   xmlns:rdf="http://www.w3.org/1999/02/22-rdf-syntax-ns#"
   xmlns:svg="http://www.w3.org/2000/svg"
   xmlns="http://www.w3.org/2000/svg"
   xmlns:sodipodi="http://sodipodi.sourceforge.net/DTD/sodipodi-0.dtd"
   xmlns:inkscape="http://www.inkscape.org/namespaces/inkscape"
   version="1.1"
   width="600"
   height="435"
   viewBox="0 0 600 435"
   xml:space="preserve"
   id="svg18"
   sodipodi:docname="vr.svg"
   inkscape:version="1.0.1 (3bc2e813f5, 2020-09-07)"><metadata
   id="metadata22"><rdf:RDF><cc:Work
       rdf:about=""><dc:format>image/svg+xml</dc:format><dc:type
         rdf:resource="http://purl.org/dc/dcmitype/StillImage" /><dc:title></dc:title></cc:Work></rdf:RDF></metadata><sodipodi:namedview
   pagecolor="#ffffff"
   bordercolor="#666666"
   borderopacity="1"
   objecttolerance="10"
   gridtolerance="10"
   guidetolerance="10"
   inkscape:pageopacity="0"
   inkscape:pageshadow="2"
   inkscape:window-width="2560"
   inkscape:window-height="1377"
   id="namedview20"
   showgrid="false"
   inkscape:zoom="1.96875"
   inkscape:cx="260.30677"
   inkscape:cy="217.2655"
   inkscape:window-x="-8"
   inkscape:window-y="-8"
   inkscape:window-maximized="1"
   inkscape:current-layer="svg18" />
<desc
   id="desc2">Created with Fabric.js 1.7.22</desc>
<defs
   id="defs4">
</defs>
<g
   transform="matrix(1.1292057,0,0,1.1292057,301.72671,212.28355)"
   id="g16">
	<g
   style="opacity:1;fill:none;fill-rule:nonzero;stroke:none;stroke-width:0;stroke-linecap:butt;stroke-linejoin:miter;stroke-miterlimit:10;stroke-dasharray:none"
   transform="matrix(3.89,0,0,3.89,-175.05,-175.05)"
   id="g14">
	<path
   d="m 86.351,40.731 h -4.794 v -2.408 c 0,-4.91 -3.994,-8.904 -8.903,-8.904 h -20.74 v -5.538 c 0,-2.067 -1.682,-3.749 -3.748,-3.749 h -6.332 c -2.067,0 -3.749,1.682 -3.749,3.749 v 5.538 H 17.347 c -4.91,0 -8.904,3.994 -8.904,8.904 v 2.408 H 3.65 C 1.637,40.731 0,42.368 0,44.381 v 10.524 c 0,2.013 1.637,3.649 3.65,3.649 h 4.793 v 2.409 c 0,4.909 3.994,8.903 8.904,8.903 h 14.458 c 3.072,0 6.036,-1.363 8.129,-3.741 1.282,-1.456 3.128,-2.291 5.065,-2.291 1.937,0 3.783,0.835 5.064,2.291 2.094,2.378 5.057,3.741 8.13,3.741 h 14.459 c 4.909,0 8.903,-3.994 8.903,-8.903 v -2.409 h 4.794 c 2.013,0 3.649,-1.637 3.649,-3.649 V 44.381 C 90,42.368 88.363,40.731 86.351,40.731 Z M 40.085,23.881 c 0,-0.964 0.785,-1.749 1.749,-1.749 h 6.332 c 0.964,0 1.748,0.784 1.748,1.749 v 5.538 H 40.085 Z M 3.65,56.555 C 2.74,56.555 2,55.815 2,54.906 V 44.381 c 0,-0.91 0.74,-1.65 1.65,-1.65 h 4.793 v 13.824 z m 75.907,4.409 c 0,3.807 -3.097,6.903 -6.903,6.903 h -14.46 c -2.499,0 -4.914,-1.116 -6.629,-3.063 C 49.904,62.917 47.51,61.835 45,61.835 c -2.511,0 -4.904,1.082 -6.566,2.969 -1.714,1.947 -4.13,3.063 -6.628,3.063 H 17.347 c -3.807,0 -6.904,-3.097 -6.904,-6.903 V 58.555 40.731 38.323 c 0,-3.807 3.097,-6.904 6.904,-6.904 h 20.738 13.829 20.739 c 3.807,0 6.903,3.097 6.903,6.904 v 2.408 17.824 2.409 z M 88,54.905 c 0,0.909 -0.74,1.649 -1.649,1.649 H 81.557 V 42.731 h 4.794 c 0.909,0 1.649,0.74 1.649,1.65 z"
   style="opacity:1;fill:#000000;fill-rule:nonzero;stroke:none;stroke-width:1;stroke-linecap:butt;stroke-linejoin:miter;stroke-miterlimit:10;stroke-dasharray:none"
   stroke-linecap="round"
   id="path6" />
	<path
   d="m 16.822,45.307 c -0.256,0 -0.512,-0.098 -0.707,-0.293 -0.391,-0.391 -0.391,-1.023 0,-1.414 l 7.697,-7.697 c 0.391,-0.391 1.023,-0.391 1.414,0 0.391,0.391 0.391,1.023 0,1.414 l -7.697,7.697 c -0.195,0.195 -0.451,0.293 -0.707,0.293 z"
   style="opacity:1;fill:#000000;fill-rule:nonzero;stroke:none;stroke-width:1;stroke-linecap:butt;stroke-linejoin:miter;stroke-miterlimit:10;stroke-dasharray:none"
   stroke-linecap="round"
   id="path8" />
	<path
   d="m 29.291,41.458 c -0.256,0 -0.512,-0.098 -0.707,-0.293 -0.391,-0.391 -0.391,-1.023 0,-1.414 l 3.624,-3.624 c 0.391,-0.391 1.023,-0.391 1.414,0 0.391,0.391 0.391,1.023 0,1.414 l -3.624,3.624 c -0.195,0.195 -0.451,0.293 -0.707,0.293 z"
   style="opacity:1;fill:#000000;fill-rule:nonzero;stroke:none;stroke-width:1;stroke-linecap:butt;stroke-linejoin:miter;stroke-miterlimit:10;stroke-dasharray:none"
   stroke-linecap="round"
   id="path10" />
	<path
   d="m 17.047,53.702 c -0.256,0 -0.512,-0.098 -0.707,-0.293 -0.391,-0.391 -0.391,-1.023 0,-1.414 l 8.875,-8.875 c 0.391,-0.391 1.023,-0.391 1.414,0 0.391,0.391 0.391,1.023 0,1.414 l -8.875,8.875 c -0.195,0.195 -0.451,0.293 -0.707,0.293 z"
   style="opacity:1;fill:#000000;fill-rule:nonzero;stroke:none;stroke-width:1;stroke-linecap:butt;stroke-linejoin:miter;stroke-miterlimit:10;stroke-dasharray:none"
   stroke-linecap="round"
   id="path12" />
</g>
</g>
</svg>
